HIERARCHY
ROOT Hips
{
	OFFSET 0.00000 0.00000 0.00000
	CHANNELS 6 Xposition Yposition Zposition Zrotation Yrotation Xrotation 
	JOINT LHipJoint
	{
		OFFSET 0 0 0
		CHANNELS 3 Zrotation Yrotation Xrotation
		JOINT LeftHip
		{
			OFFSET 1.46561 -1.72757 0.83774
			CHANNELS 3 Zrotation Yrotation Xrotation
			JOINT LeftKnee
			{
				OFFSET 2.48915 -6.83890 0.00000
				CHANNELS 3 Zrotation Yrotation Xrotation
				JOINT LeftAnkle
				{
					OFFSET 2.60555 -7.15868 0.00000
					CHANNELS 3 Zrotation Yrotation Xrotation
					JOINT LeftToe
					{
						OFFSET 0.19248 -0.52884 2.26738
						CHANNELS 3 Zrotation Yrotation Xrotation
						End Site
						{
							OFFSET 0.00000 -0.00000 1.17015
						}
					}
				}
			}
		}
	}
	JOINT RHipJoint
	{
		OFFSET 0 0 0
		CHANNELS 3 Zrotation Yrotation Xrotation
		JOINT RightHip
		{
			OFFSET -1.46918 -1.72757 0.83774
			CHANNELS 3 Zrotation Yrotation Xrotation
			JOINT RightKnee
			{
				OFFSET -2.49034 -6.84216 0.00000
				CHANNELS 3 Zrotation Yrotation Xrotation
				JOINT RightAnkle
				{
					OFFSET -2.65971 -7.30750 0.00000
					CHANNELS 3 Zrotation Yrotation Xrotation
					JOINT RightToe
					{
						OFFSET -0.19227 -0.52827 2.30785
						CHANNELS 3 Zrotation Yrotation Xrotation
						End Site
						{
							OFFSET -0.00000 -0.00000 1.18972
						}
					}
				}
			}
		}
	}
	JOINT lowerback
	{
		OFFSET 0 0 0
		CHANNELS 3 Zrotation Yrotation Xrotation
		JOINT Chest
		{
			OFFSET 0.02432 2.19909 -0.28000
			CHANNELS 3 Zrotation Yrotation Xrotation
			JOINT Chest2
			{
				OFFSET 0.03714 2.21816 -0.15261
				CHANNELS 3 Zrotation Yrotation Xrotation
				JOINT lowerneck
				{
					OFFSET 0 0 0
					CHANNELS 3 Zrotation Yrotation Xrotation
					JOINT Neck
					{
						OFFSET -0.01896 1.56165 0.21681
						CHANNELS 3 Zrotation Yrotation Xrotation
						JOINT Head
						{
							OFFSET 0.02744 1.56009 0.06764
							CHANNELS 3 Zrotation Yrotation Xrotation
							End Site
							{
								OFFSET 0.01212 1.60574 0.00298
							}
						}
					}
				}
				JOINT LeftCollar
				{
					OFFSET 0 0 0
					CHANNELS 3 Zrotation Yrotation Xrotation
					JOINT LeftShoulder
					{
						OFFSET 3.05595 1.48048 -0.60794
CHANNELS 3 Zrotation Xrotation Yrotation
						JOINT LeftElbow
						{
OFFSET 0 -5.206070 -0.000000
CHANNELS 3 Zrotation Xrotation Yrotation
							JOINT LeftWrist
							{
OFFSET 0 -3.399610 0.000000
CHANNELS 3 Zrotation Xrotation Yrotation
								JOINT lhand
								{
									OFFSET 0 0 0
CHANNELS 3 Zrotation Xrotation Yrotation
									JOINT LFingers
									{
OFFSET 0 -0.519690 0.000000
CHANNELS 3 Zrotation Xrotation Yrotation
										End Site
										{
OFFSET 0 -0.418990 0.000000
										}
									}
								}
								JOINT LThumb
								{
OFFSET 0 0.000000 0.000000
CHANNELS 3 Zrotation Xrotation Yrotation
									End Site
									{
OFFSET 0 -0.425390 0.425390
									}
								}
							}
						}
					}
				}
				JOINT RightCollar
				{
					OFFSET 0 0 0
					CHANNELS 3 Zrotation Yrotation Xrotation
					JOINT RightShoulder
					{
						OFFSET -2.99052 1.57608 -0.69102
CHANNELS 3 Zrotation Xrotation Yrotation
						JOINT RightElbow
						{
OFFSET 0 -5.322140 0.000000
CHANNELS 3 Zrotation Xrotation Yrotation
							JOINT RightWrist
							{
OFFSET 0 -3.512080 0.000000
CHANNELS 3 Zrotation Xrotation Yrotation
								JOINT rhand
								{
									OFFSET 0 0 0
CHANNELS 3 Zrotation Xrotation Yrotation
									JOINT RFingers
									{
OFFSET 0 -0.586680 0.000000
CHANNELS 3 Zrotation Xrotation Yrotation
										End Site
										{
OFFSET 0 -0.473000 0.000000
										}
									}
								}
								JOINT RThumb
								{
OFFSET 0 0.000000 0.000000
CHANNELS 3 Zrotation Xrotation Yrotation
									End Site
									{
OFFSET 0 -0.480220 0.480220
									}
								}
							}
						}
					}
				}
			}
		}
	}
}
MOTION
Frames: 9
Frame Time: 0.008333333333333333
0.564900 17.606600 -13.618700 -1.237900 -0.507700 7.244000 0.000000 0.000000 0.000000 -18.852000 3.842100 -11.823800 0.736200 5.481500 15.287000 0.457000 -1.162800 -12.419300 0.000000 -0.025600 -0.070300 0.000000 0.000000 0.000000 20.012700 0.385900 -11.694300 -1.044600 -6.499600 18.241200 -0.636600 1.573900 -14.615600 -0.555800 -4.775500 13.269400 -0.157700 -0.528100 -3.803400 1.782700 -0.758100 1.426900 1.873700 -0.402600 3.629500 -1.412500 0.487200 -13.010900 0.022900 0.939800 14.333500 0.326300 0.377900 6.497100 0.000000 -0.000000 0.000000 0.650900 -6.588400 -21.670900 7.180800 -12.216400 0.769400 25.713900 0.204700 3.905700 0.000000 0.000000 0.000000 -7.125000 0.000000 0.000000 -0.693400 25.646300 -0.325000 0.000000 -0.000000 0.000000 -1.639600 -3.538400 5.973900 -11.677100 -19.318600 -1.994200 -21.472700 44.584000 25.228400 0.000000 0.000000 0.000000 7.125000 0.000000 -0.000000 8.980900 56.607700 -2.569900
0.564101 17.606555 -13.611148 -1.238494 -0.513473 7.254786 0.000000 0.000000 0.000000 -18.849896 3.861192 -11.813993 0.737251 5.485513 15.298650 0.459734 -1.178509 -12.452840 0.000000 -0.007127 -0.019641 0.000000 0.000000 0.000000 20.016697 0.359911 -11.675019 -1.041889 -6.491595 18.217658 -0.637416 1.596809 -14.620064 -0.552782 -4.762939 13.233656 -0.140191 -0.526060 -3.828794 1.766781 -0.755880 1.419997 1.847447 -0.400912 3.636099 -1.414604 0.479228 -12.987628 0.034675 0.926425 14.251756 0.328802 0.372844 6.467001 0.000000 0.000000 0.000000 0.653901 -6.548497 -21.613114 7.182096 -12.218494 0.769705 25.765145 0.142906 4.029845 0.000000 0.000000 0.000000 -7.125000 0.000000 0.000000 -0.657002 25.506682 -0.310024 0.000000 0.000000 0.000000 -1.611211 -3.514513 5.962341 -11.689614 -19.337522 -1.998329 -21.462908 44.566682 25.259121 0.000000 0.000000 0.000000 7.125000 0.000000 0.000000 9.005060 56.637002 -2.583338
0.562190 17.606589 -13.603941 -1.240871 -0.510146 7.267781 0.000000 0.000000 0.000000 -18.841370 3.877048 -11.803537 0.736323 5.481981 15.288564 0.459910 -1.191709 -12.452052 0.000000 -0.008389 -0.023123 0.000000 0.000000 0.000000 20.028527 0.358219 -11.658718 -1.041378 -6.490024 18.213038 -0.639553 1.596598 -14.645298 -0.555907 -4.776007 13.270866 -0.147872 -0.532169 -3.855780 1.768339 -0.763838 1.414161 1.852584 -0.405069 3.645728 -1.411090 0.484981 -12.971615 0.024118 0.934696 14.186557 0.325299 0.376564 6.443488 0.000000 0.000000 0.000000 0.631288 -6.515627 -21.484599 7.184836 -12.223060 0.770278 25.784580 0.169019 4.113224 0.000000 0.000000 0.000000 -7.125000 0.000000 0.000000 -0.643938 25.413482 -0.305326 0.000000 0.000000 0.000000 -1.608064 -3.511369 5.935380 -11.683783 -19.328774 -1.996379 -21.491793 44.587087 25.269342 0.000000 0.000000 0.000000 7.125000 0.000000 0.000000 8.979065 56.653492 -2.579363
0.560702 17.606500 -13.596827 -1.220501 -0.514813 7.277816 0.000000 0.000000 0.000000 -18.861985 3.904177 -11.791101 0.735269 5.478256 15.277736 0.460649 -1.209644 -12.457665 0.000000 -0.007385 -0.020406 0.000000 0.000000 0.000000 20.012025 0.345814 -11.644303 -1.041034 -6.489067 18.210219 -0.641730 1.610204 -14.668382 -0.556951 -4.780402 13.283290 -0.169348 -0.532747 -3.878230 1.756265 -0.763098 1.407960 1.852105 -0.405065 3.652089 -1.422017 0.478985 -12.969045 0.034298 0.926671 14.140114 0.329400 0.373301 6.428128 0.000000 0.000000 0.000000 0.617731 -6.488193 -21.358952 7.179577 -12.214433 0.769185 25.789086 0.263250 4.144332 0.000000 0.000000 0.000000 -7.125000 0.000000 0.000000 -0.641270 25.378830 -0.304508 0.000000 0.000000 0.000000 -1.597651 -3.506959 5.886568 -11.679007 -19.321527 -1.994802 -21.481037 44.599273 25.271970 0.000000 0.000000 0.000000 7.125000 0.000000 0.000000 8.991640 56.653987 -2.583111
0.559159 17.606511 -13.589936 -1.207122 -0.517802 7.286916 0.000000 0.000000 0.000000 -18.874800 3.933161 -11.775967 0.733402 5.471420 15.258282 0.460378 -1.220860 -12.451101 0.000000 -0.007222 -0.019754 0.000000 0.000000 0.000000 20.004056 0.340077 -11.633915 -1.041943 -6.491809 18.218393 -0.644174 1.617036 -14.695288 -0.556037 -4.776406 13.272025 -0.184143 -0.534519 -3.900347 1.745780 -0.764443 1.402707 1.849350 -0.405943 3.659194 -1.421317 0.478037 -12.965849 0.035434 0.924650 14.093431 0.329341 0.372813 6.412710 0.000000 0.000000 0.000000 0.612678 -6.466141 -21.278449 7.169258 -12.197496 0.766983 25.803733 0.302779 4.210227 0.000000 0.000000 0.000000 -7.125000 0.000000 0.000000 -0.631603 25.305187 -0.301094 0.000000 0.000000 0.000000 -1.586364 -3.504517 5.832622 -11.671686 -19.310474 -1.992429 -21.475092 44.628504 25.279087 0.000000 0.000000 0.000000 7.125000 0.000000 0.000000 9.001173 56.659957 -2.587184
0.557537 17.606639 -13.583333 -1.191404 -0.522373 7.294960 0.000000 0.000000 0.000000 -18.890812 3.963108 -11.765253 0.732291 5.467182 15.245899 0.460046 -1.228565 -12.444532 0.000000 -0.007439 -0.020393 0.000000 0.000000 0.000000 19.993408 0.334865 -11.620951 -1.042377 -6.492970 18.221571 -0.646101 1.620880 -14.716662 -0.554160 -4.768540 13.249591 -0.200782 -0.536271 -3.920523 1.734161 -0.765533 1.399644 1.846567 -0.406763 3.667561 -1.424411 0.476546 -12.975818 0.040388 0.922407 14.057026 0.331117 0.372139 6.402739 0.000000 0.000000 0.000000 0.613348 -6.452406 -21.235296 7.157114 -12.177561 0.764429 25.816799 0.320574 4.271718 0.000000 0.000000 0.000000 -7.125000 0.000000 0.000000 -0.623075 25.236376 -0.297973 0.000000 0.000000 0.000000 -1.577765 -3.507457 5.774240 -11.661915 -19.295734 -1.989159 -21.469522 44.666842 25.279607 0.000000 0.000000 0.000000 7.125000 0.000000 0.000000 9.007278 56.659291 -2.588816
0.556071 17.606833 -13.576820 -1.176911 -0.527449 7.302244 0.000000 0.000000 0.000000 -18.905887 3.991284 -11.755827 0.731402 5.464141 15.237221 0.459535 -1.230502 -12.436690 0.000000 -0.007102 -0.019441 0.000000 0.000000 0.000000 19.983630 0.328322 -11.607475 -1.042500 -6.493400 18.222800 -0.647695 1.625384 -14.734550 -0.552704 -4.762648 13.232675 -0.216353 -0.538826 -3.939940 1.724029 -0.767959 1.398534 1.844538 -0.408229 3.677566 -1.430609 0.476101 -12.994294 0.044853 0.922498 14.025455 0.333558 0.372399 6.395783 0.000000 0.000000 0.000000 0.615893 -6.444415 -21.217734 7.146098 -12.159351 0.762073 25.834347 0.311942 4.339266 0.000000 0.000000 0.000000 -7.125000 0.000000 0.000000 -0.611269 25.160791 -0.293380 0.000000 0.000000 0.000000 -1.574801 -3.512746 5.722382 -11.651897 -19.280546 -1.985843 -21.473041 44.708376 25.271811 0.000000 0.000000 0.000000 7.125000 0.000000 0.000000 9.000048 56.652040 -2.585156
0.554572 17.607088 -13.570401 -1.163137 -0.532948 7.309745 0.000000 0.000000 0.000000 -18.920427 4.017668 -11.749552 0.731200 5.463218 15.234648 0.459024 -1.227950 -12.430470 0.000000 -0.004926 -0.013631 0.000000 0.000000 0.000000 19.974515 0.318599 -11.593655 -1.042124 -6.492272 18.219698 -0.648946 1.630842 -14.748299 -0.551742 -4.758486 13.220923 -0.231867 -0.542602 -3.958447 1.716237 -0.771984 1.398500 1.844758 -0.410574 3.688207 -1.443133 0.476000 -13.018364 0.049572 0.924298 13.996464 0.337308 0.373252 6.390546 0.000000 0.000000 0.000000 0.616218 -6.438870 -21.212074 7.139828 -12.149167 0.760748 25.852998 0.292510 4.393444 0.000000 0.000000 0.000000 -7.125000 0.000000 0.000000 -0.598425 25.099950 -0.288064 0.000000 0.000000 0.000000 -1.579587 -3.519763 5.682995 -11.642533 -19.266355 -1.982744 -21.482537 44.745887 25.257285 0.000000 0.000000 0.000000 7.125000 0.000000 0.000000 8.983493 56.639201 -2.577561
0.553261 17.607343 -13.564158 -1.150790 -0.537633 7.317872 0.000000 0.000000 0.000000 -18.933827 4.042888 -11.749164 0.731839 5.465768 15.241974 0.458678 -1.220412 -12.427517 0.000000 -0.001279 -0.003568 0.000000 0.000000 0.000000 19.966837 0.303170 -11.578996 -1.040996 -6.488810 18.209517 -0.650074 1.638072 -14.759528 -0.551091 -4.755623 13.212833 -0.245662 -0.547381 -3.975391 1.709845 -0.777433 1.397491 1.845387 -0.413599 3.697032 -1.456461 0.477704 -13.042242 0.053599 0.928846 13.967518 0.341151 0.375169 6.385328 0.000000 0.000000 0.000000 0.614162 -6.434067 -21.199982 7.134523 -12.140497 0.759691 25.871635 0.280784 4.442721 0.000000 0.000000 0.000000 -7.125000 0.000000 0.000000 -0.585581 25.044463 -0.282649 0.000000 0.000000 0.000000 -1.589110 -3.525212 5.655334 -11.634885 -19.254855 -1.980209 -21.493145 44.777630 25.246089 0.000000 0.000000 0.000000 7.125000 0.000000 0.000000 8.967096 56.630037 -2.570823
